<svg width="29" height="29" viewBox="0 0 29 29" fill="none" xmlns="http://www.w3.org/2000/svg">
<path d="M27.9776 0H21.3654C21.1947 0 21.0367 0.0821787 20.9355 0.214929L17.1237 5.31C16.9783 5.49964 16.9783 5.75882 17.1237 5.95479L20.4298 10.3735C20.6447 10.6579 21.0746 10.6579 21.2895 10.3735L28.4011 0.859715C28.6729 0.505715 28.4201 0 27.9776 0Z" fill="#1E293B"/>
<path d="M17.1297 22.9847L20.9416 28.0797C21.0427 28.2125 21.2008 28.2947 21.3714 28.2947H27.9836C28.4261 28.2947 28.679 27.789 28.4135 27.435L21.3019 17.9212C21.087 17.6367 20.6571 17.6367 20.4422 17.9212L17.1361 22.3399C16.9844 22.5295 16.9844 22.795 17.1297 22.9847Z" fill="#1E293B"/>
<path d="M7.62891 0H1.01669C0.574189 0 0.321337 0.505715 0.586837 0.859715L10.2839 13.825C10.4293 14.0146 10.4293 14.2738 10.2839 14.4698L0.586837 27.435C0.321337 27.789 0.574189 28.2947 1.01669 28.2947H7.62891C7.79959 28.2947 7.95762 28.2125 8.05876 28.0798L18.2363 14.4698C18.3816 14.2801 18.3816 14.0209 18.2363 13.825L8.05876 0.214929C7.95762 0.0821787 7.79959 0 7.62891 0Z" fill="url(#paint0_linear_214_666)"/>
<defs>
<linearGradient id="paint0_linear_214_666" x1="9.41191" y1="0" x2="9.41191" y2="28.2947" gradientUnits="userSpaceOnUse">
<stop stop-color="#D23EF0"/>
<stop offset="1" stop-color="#3783F9"/>
</linearGradient>
</defs>
</svg>
