<svg width="177" height="67" viewBox="0 0 177 67" fill="none" xmlns="http://www.w3.org/2000/svg">
<path d="M0 47.101V0.537321C0 0.240214 0.240214 0 0.537321 0H7.57307C7.87018 0 8.11039 0.240214 8.11039 0.537321V47.101C8.11039 47.3981 7.87018 47.6383 7.57307 47.6383H0.537321C0.240214 47.6383 0 47.3981 0 47.101Z" fill="#1A1F3A"/>
<path d="M27.264 47.6572C18.5025 47.6572 11.4541 41.9237 11.4541 32.9978C11.4541 23.9076 18.4962 18.0097 27.264 18.0097C35.9433 18.0097 43.0739 23.9076 43.0739 32.9978C43.0676 41.9174 35.9433 47.6572 27.264 47.6572ZM35.21 32.9093C35.21 27.7511 31.7712 24.3881 27.264 24.3881C22.7568 24.3881 19.318 27.7447 19.318 32.9093C19.318 37.9854 22.7568 41.2663 27.264 41.2663C31.7649 41.2663 35.21 37.9918 35.21 32.9093Z" fill="#1A1F3A"/>
<path d="M43.1758 56.09C43.1758 52.8155 44.6487 50.0277 48.3341 48.3905V47.8974C44.9774 46.4245 43.7447 44.2942 43.7447 41.6708C43.7447 39.1865 44.6992 37.0751 47.86 35.3999C48.1444 35.2482 48.2392 34.8879 48.0559 34.6161C46.9686 33.0041 46.3681 31.1203 46.3681 28.9774C46.3681 22.5105 51.5264 18.0855 58.4104 18.0855C61.6154 18.0855 69.0241 18.5533 70.6297 18.6545C70.8257 18.6671 70.9964 18.7809 71.0786 18.9579L73.2847 23.6231C73.4554 23.9771 73.1962 24.388 72.798 24.388H68.9735V24.7989C68.9735 24.7989 70.4464 25.8672 70.4464 29.3883C70.4464 34.7109 65.8571 39.4646 58.4041 39.4646C56.3749 39.4646 54.4911 39.0916 52.8981 38.4216C52.7527 38.3584 52.5757 38.3647 52.4367 38.4405C51.1408 39.1359 50.7046 39.8502 50.7046 40.8616C50.7046 42.6633 52.1775 43.9718 58.9794 43.9718C70.2821 43.9718 74.9536 48.1503 74.9536 54.8636C74.9536 61.3304 69.5488 66.4129 58.9794 66.4129C48.4226 66.4129 43.1758 61.9057 43.1758 56.09ZM50.8753 55.3504C50.8753 58.0559 53.2521 60.5086 58.9857 60.5086C64.7192 60.5086 67.0961 58.1318 67.0961 55.3504C67.0961 52.5626 64.7192 50.1099 58.9857 50.1099C53.2521 50.1099 50.8753 52.6511 50.8753 55.3504ZM52.9234 28.8952C52.9234 31.6829 54.8894 33.8069 58.4104 33.8069C61.9315 33.8069 63.8974 31.6766 63.8974 28.8952C63.8974 26.1138 61.9315 23.9013 58.4104 23.9013C54.8894 23.9013 52.9234 26.1138 52.9234 28.8952Z" fill="#1A1F3A"/>
<path d="M85.0609 29.9635C90.0549 29.9635 92.4317 31.4364 93.3357 32.0939H93.7466V30.7853C93.7466 26.6069 91.2054 24.4765 85.4718 24.4765C81.8813 24.4765 79.1125 25.7345 78.0252 26.3161C77.7471 26.4615 77.412 26.3414 77.2856 26.0506L75.1742 21.1451C75.0668 20.886 75.1616 20.5952 75.4081 20.4624C76.6598 19.7987 80.6549 17.9971 86.9447 17.9971C97.2676 17.9971 101.44 23.4841 101.44 31.4301V46.4625C101.44 46.7596 101.2 46.9998 100.902 46.9998H96.1171C95.8706 46.9998 95.662 46.8354 95.5988 46.6015L94.8845 43.8896H94.4736C93.6518 45.116 91.1169 47.6572 84.3972 47.6572C76.7799 47.6572 72.6836 43.7253 72.6836 38.7314C72.6899 33.5668 76.9506 29.9635 85.0609 29.9635ZM85.0546 42.6127C89.6187 42.6127 92.5961 40.0715 92.5961 38.1371C92.5961 35.7666 89.6124 34.0156 85.0546 34.0156C80.8446 34.0156 78.5625 35.6844 78.5625 38.3141C78.5625 40.6847 80.5791 42.6127 85.0546 42.6127Z" fill="#1A1F3A"/>
<path d="M110.575 18.6608C110.815 18.6608 111.03 18.8251 111.093 19.059L111.099 22.5927H111.51C113.476 19.805 116.586 18.0034 121.586 18.0034C129.45 18.0034 134.28 22.9151 134.28 30.5324V46.4624C134.28 46.7595 134.04 46.9998 133.743 46.9998H126.789C126.492 46.9998 126.252 46.7595 126.252 46.4624V31.6829C126.252 27.5866 123.957 24.6409 119.703 24.6409C115.36 24.6409 112.907 27.6688 112.907 30.5388V46.4624C112.907 46.7595 112.667 46.9998 112.37 46.9998H105.416C105.119 46.9998 104.879 46.7595 104.879 46.4624V19.1981C104.879 18.901 105.119 18.6608 105.416 18.6608H110.575Z" fill="#1A1F3A"/>
<path d="M145.703 19.1981V46.4624C145.703 46.7595 145.463 46.9997 145.166 46.9997H138.212C137.915 46.9997 137.675 46.7595 137.675 46.4624V19.1981C137.675 18.901 137.915 18.6608 138.212 18.6608H145.166C145.463 18.6608 145.703 18.901 145.703 19.1981Z" fill="#1A1F3A"/>
<path d="M176.463 18.8884H169.851C169.68 18.8884 169.522 18.9706 169.421 19.1034L165.609 24.1984C165.464 24.3881 165.464 24.6472 165.609 24.8432L168.915 29.2619C169.13 29.5464 169.56 29.5464 169.775 29.2619L176.886 19.7481C177.158 19.3941 176.905 18.8884 176.463 18.8884Z" fill="#1A1F3A"/>
<path d="M165.615 41.8731L169.427 46.9682C169.528 47.1009 169.686 47.1831 169.857 47.1831H176.469C176.912 47.1831 177.164 46.6774 176.899 46.3234L169.787 36.8096C169.572 36.5252 169.142 36.5252 168.928 36.8096L165.621 41.2283C165.47 41.418 165.47 41.6835 165.615 41.8731Z" fill="#1A1F3A"/>
<path d="M156.114 18.8884H149.502C149.06 18.8884 148.807 19.3941 149.072 19.7481L158.769 32.7134C158.915 32.903 158.915 33.1622 158.769 33.3582L149.072 46.3234C148.807 46.6774 149.06 47.1831 149.502 47.1831H156.114C156.285 47.1831 156.443 47.101 156.544 46.9682L166.722 33.3582C166.867 33.1685 166.867 32.9094 166.722 32.7134L156.544 19.1034C156.443 18.9706 156.285 18.8884 156.114 18.8884Z" fill="url(#paint0_linear_182_923)"/>
<path d="M141.688 6.7955C139.311 6.7955 137.377 8.72986 137.377 11.1067C137.377 13.4836 139.311 15.4179 141.688 15.4179C144.065 15.4179 145.999 13.4836 145.999 11.1067C145.999 8.72986 144.065 6.7955 141.688 6.7955ZM140.064 11.6756C139.318 11.6756 138.711 11.0688 138.711 10.3229C138.711 9.57693 139.318 8.97007 140.064 8.97007C140.809 8.97007 141.416 9.57693 141.416 10.3229C141.416 11.0688 140.809 11.6756 140.064 11.6756ZM141.897 9.32407C141.587 9.32407 141.334 9.07122 141.334 8.76147C141.334 8.45172 141.587 8.19886 141.897 8.19886C142.207 8.19886 142.459 8.45172 142.459 8.76147C142.466 9.07122 142.213 9.32407 141.897 9.32407Z" fill="#1A1F3A"/>
<defs>
<linearGradient id="paint0_linear_182_923" x1="157.897" y1="18.8884" x2="157.897" y2="47.1831" gradientUnits="userSpaceOnUse">
<stop stop-color="#D23EF0"/>
<stop offset="1" stop-color="#3783F9"/>
</linearGradient>
</defs>
</svg>
